<mxfile host="app.diagrams.net" modified="2024-04-05T10:30:18.935Z" agent="Mozilla/5.0 (Macintosh; Intel Mac OS X 10_15_7) AppleWebKit/537.36 (KHTML, like Gecko) Chrome/123.0.0.0 Safari/537.36" etag="ClT18u4Zwm8m7_JlkPlH" version="22.1.18" type="github">
  <diagram name="第 1 页" id="drF_sHXa2TupYLhnqfMF">
    <mxGraphModel dx="1242" dy="785" grid="1" gridSize="10" guides="1" tooltips="1" connect="1" arrows="1" fold="1" page="1" pageScale="1" pageWidth="827" pageHeight="1169" math="0" shadow="0">
      <root>
        <mxCell id="0" />
        <mxCell id="1" parent="0" />
        <mxCell id="DvmmfAf9E5kGrFGwQz9Y-1" value="&lt;font style=&quot;font-size: 24px;&quot;&gt;逆向业务&lt;br&gt;的复杂性&lt;/font&gt;" style="ellipse;whiteSpace=wrap;html=1;sketch=1;curveFitting=1;jiggle=2;" vertex="1" parent="1">
          <mxGeometry x="40" y="230" width="150" height="100" as="geometry" />
        </mxCell>
      </root>
    </mxGraphModel>
  </diagram>
</mxfile>
